<svg xmlns="http://www.w3.org/2000/svg" viewBox="0 0 28 35" x="0px" y="0px"><title>chat</title><g data-name="Layer 2"><path d="M24.974,5.5H3.026A1.528,1.528,0,0,0,1.5,7.026V20.974A1.528,1.528,0,0,0,3.026,22.5H24.974A1.528,1.528,0,0,0,26.5,20.974V7.026A1.528,1.528,0,0,0,24.974,5.5ZM14,15.35,3.381,6.5H24.619Zm-3.476-1.6L2.5,20.886V7.067Zm.777.648,2.379,1.982a.5.5,0,0,0,.64,0L16.7,14.4l7.986,7.1H3.315Zm6.175-.648L25.5,7.067V20.886Z"/></g><text x="0" y="43" fill="#000000" font-size="5px" font-weight="bold" font-family="'Helvetica Neue', Helvetica, Arial-Unicode, Arial, Sans-serif">Created by Ilham Fitrotul Hayat</text><text x="0" y="48" fill="#000000" font-size="5px" font-weight="bold" font-family="'Helvetica Neue', Helvetica, Arial-Unicode, Arial, Sans-serif">from the Noun Project</text></svg>