<?xml version="1.0" encoding="utf-8"?>
<!-- Generator: Adobe Illustrator 22.0.0, SVG Export Plug-In . SVG Version: 6.00 Build 0)  -->
<svg version="1.1" id="Layer_1" xmlns="http://www.w3.org/2000/svg" xmlns:xlink="http://www.w3.org/1999/xlink" x="0px" y="0px"
	 viewBox="0 0 92.2 92.8" style="enable-background:new 0 0 92.2 92.8;" xml:space="preserve">
<style type="text/css">
	.st0{fill:#9C9A9C;}
</style>
<title>cart</title>
<path class="st0" d="M67.2,76.1c-4.3,0-7.8,3.5-7.8,7.8s3.5,7.8,7.8,7.8s7.8-3.5,7.8-7.8C75.1,79.6,71.6,76.1,67.2,76.1L67.2,76.1z
	 M67.2,86.9c-1.7,0-3-1.4-3-3c0-1.7,1.4-3,3-3c1.7,0,3,1.4,3,3C70.2,85.6,68.9,86.9,67.2,86.9z"/>
<path class="st0" d="M35.9,76.1c-4.3,0-7.8,3.5-7.8,7.8s3.5,7.8,7.8,7.8s7.8-3.5,7.8-7.8l0,0C43.7,79.6,40.2,76.1,35.9,76.1z
	 M35.9,86.9c-1.7,0-3-1.4-3-3s1.4-3,3-3c1.7,0,3,1.4,3,3C38.9,85.6,37.5,86.9,35.9,86.9L35.9,86.9z"/>
<path class="st0" d="M89.4,21.1H27.3l-2.6-17c-0.2-1.4-1.4-2.4-2.8-2.4H3.6C2.1,1.7,0.8,3,0.8,4.5c0,1.6,1.2,2.8,2.8,2.8l0,0h15.9
	l2.1,13.8l2.7,17.5l0.8,5l2.7,17.5l1.5,9.4c0.2,1.4,1.4,2.4,2.8,2.4h39.1c1.6,0,2.8-1.3,2.8-2.8c0-1.6-1.3-2.8-2.8-2.8H34.5l-1-6.2
	h42.7c0.6,0,1.1-0.4,1.3-1l5.9-16.6l1.8-5l5.5-15.6c0.3-0.7-0.1-1.6-0.9-1.8C89.7,21.2,89.6,21.2,89.4,21.1z M45.1,56.2H32.7
	l-1.9-12.5h14.3C45.1,43.7,45.1,56.2,45.1,56.2z M45.1,38.7H30l-1.9-12.5h17V38.7z M62.3,56.2H50.2V43.7h12.1
	C62.3,43.7,62.3,56.2,62.3,56.2z M62.3,38.7H50.2V26.2h12.1C62.3,26.2,62.3,38.7,62.3,38.7z M73.7,56.2h-6.4V43.7h10.8L73.7,56.2z
	 M79.9,38.7H67.3V26.2h17L79.9,38.7z"/>
</svg>
